<svg xmlns="http://www.w3.org/2000/svg" xmlns:xlink="http://www.w3.org/1999/xlink" width="96" height="96" viewBox="0 0 96 96">
  <defs>
    <ellipse id="logo-bear-a" cx="47.032" cy="47.51" rx="47.032" ry="47.51"/>
    <ellipse id="logo-bear-c" cx="47.032" cy="47.51" rx="47.032" ry="47.51"/>
    <path id="logo-bear-e" d="M66.5461811,87.2998194 C59.7113146,86.827157 31.6873687,86.4774367 18.391144,80.6659803 C1.79421806,73.4118678 0.246066569,60.4467322 0.246066569,60.4467322 C0.246066569,60.4467322 4.69105828,39.2152609 7.99811206,30.7847379 C11.2969905,22.3750559 20.0725514,9.95798082 20.0725514,9.95798082 C20.0725514,9.95798082 19.1247082,0.352331692 23.1284891,0.352331692 C28.0950615,0.352331692 32.7079119,5.38994999 32.7079119,5.38994999 C32.7079119,5.38994999 47.7711941,3.3131573 52.7591465,9.27186291 C58.4054184,16.0170101 71.2044531,19.740121 71.2044531,19.740121 C71.2044531,19.740121 75.7853178,18.3845686 73.8978014,25.6387658 C72.0102848,32.892963 65.6655403,39.2698698 52.9534765,39.2792863 C48.4146775,39.2826483 46.9959432,42.085875 47.2354797,45.7391897 C47.7364536,53.3798477 55.2265271,65.0836023 55.2265271,65.0836023 C55.2265271,65.0836023 70.1490008,87.5489707 66.5461811,87.2998194 Z"/>
    <ellipse id="logo-bear-g" cx="47.032" cy="47.51" rx="47.032" ry="47.51"/>
    <linearGradient id="logo-bear-h" x1="50%" x2="50%" y1="-37.872%" y2="100%">
      <stop offset="0%" stop-color="#FFF"/>
      <stop offset="26.474%" stop-color="#EBEBEB"/>
      <stop offset="100%" stop-color="#CBCBCB"/>
    </linearGradient>
  </defs>
  <g fill="none" fill-rule="evenodd">
    <g transform="translate(1 .5)">
      <mask id="logo-bear-b" fill="#fff">
        <use xlink:href="#logo-bear-a"/>
      </mask>
      <ellipse cx="47.032" cy="47.51" fill="#DD4C4F" fill-rule="nonzero" mask="url(#logo-bear-b)" rx="47.032" ry="47.51"/>
    </g>
    <g transform="translate(1 .5)">
      <mask id="logo-bear-d" fill="#fff">
        <use xlink:href="#logo-bear-c"/>
      </mask>
      <g mask="url(#logo-bear-d)">
        <g transform="translate(4 19.796)">
          <path fill="#FFF" d="M66.5461811,87.2998194 C59.7113146,86.827157 31.6873687,86.4774367 18.391144,80.6659803 C1.79421806,73.4118678 0.246066569,60.4467322 0.246066569,60.4467322 C0.246066569,60.4467322 4.69105828,39.2152609 7.99811206,30.7847379 C11.2969905,22.3750559 20.0725514,9.95798082 20.0725514,9.95798082 C20.0725514,9.95798082 19.1247082,0.352331692 23.1284891,0.352331692 C28.0950615,0.352331692 32.7079119,5.38994999 32.7079119,5.38994999 C32.7079119,5.38994999 47.7711941,3.3131573 52.7591465,9.27186291 C58.4054184,16.0170101 71.2044531,19.740121 71.2044531,19.740121 C71.2044531,19.740121 75.7853178,18.3845686 73.8978014,25.6387658 C72.0102848,32.892963 65.6655403,39.2698698 52.9534765,39.2792863 C48.4146775,39.2826483 46.9959432,42.085875 47.2354797,45.7391897 C47.7364536,53.3798477 55.2265271,65.0836023 55.2265271,65.0836023 C55.2265271,65.0836023 70.1490008,87.5489707 66.5461811,87.2998194 Z" transform="translate(.918)"/>
          <g transform="translate(.918)">
            <mask id="logo-bear-f" fill="#fff">
              <use xlink:href="#logo-bear-e"/>
            </mask>
            <ellipse cx="42.113" cy="27.714" stroke="#BABABA" stroke-width="1.194" mask="url(#logo-bear-f)" rx="47.032" ry="47.51"/>
          </g>
        </g>
      </g>
    </g>
    <g transform="translate(1 .5)">
      <mask id="logo-bear-i" fill="#fff">
        <use xlink:href="#logo-bear-g"/>
      </mask>
      <path fill="url(#logo-bear-h)" fill-rule="nonzero" d="M44.4055543,78.3075293 C43.3831909,68.4338595 38.548711,63.3788346 36.4354228,60.1644028 C31.3182238,52.3808513 31.3182238,46.7222294 31.3182238,46.7222294 C31.3182238,46.7222294 35.5488809,53.8741998 39.750213,56.4203931 C43.9515452,58.9665862 56.7745716,59.1573502 56.7745716,59.1573502 C56.7745716,59.1573502 52.5826502,59.3625109 52.2037028,64.1925101 C52.1466383,64.9198472 52.2150591,68.8080426 54.6275412,74.3655616 C57.2032779,80.2991619 66.9109994,95.4943748 66.9109994,95.4943748 C66.9109994,95.4943748 59.448419,103.642336 57.1594971,104.320656 C54.3361739,105.157346 43.0831689,95.9144398 43.0831689,95.9144398 C43.0831689,95.9144398 45.1031834,85.0450152 44.4055543,78.3075293 Z" mask="url(#logo-bear-i)"/>
    </g>
  </g>
</svg>
